<svg version="1.2" xmlns="http://www.w3.org/2000/svg" viewBox="0 0 128 120" width="18" height="17">
	<title>JanC_icon-svg</title>
	<style>
		.s0 { fill: #f74510 } 
	</style>
	<path id="Shape 1" fill-rule="evenodd" class="s0" d="m72 118c-34.6 0-62.5-25.8-62.5-57.8 0-32 27.9-57.8 62.5-57.8 15.2 0 29.2 5 40 13.3v1h-46.9c-23 3.1-40.6 21.4-40.6 43.5 0 24.3 21.2 43.9 47.5 43.9 18.2 0 34-9.4 42-23.3v22.2c-11.1 9.3-25.8 15-42 15zm42-78.4c-4.5-7.7-11.4-14.1-19.8-18.3h19.8z"/>
	<path id="Shape 2" fill-rule="evenodd" class="s0" d="m72 100c-20.8 0-38-13.9-41.8-32.4h15.5c3.4 10.6 13.9 18.3 26.3 18.3 13.5 0 24.7-9.1 27-21.1v-31h-58v-1c6.2-6.2 14.6-10.6 24-12v-0.1h49v45.6c-3.1 19.1-20.7 33.7-42 33.7z"/>
</svg>